<?xml version="1.0" encoding="UTF-8" standalone="no"?>
<!-- Created with Inkscape (http://www.inkscape.org/) -->

<svg
   width="213.68623mm"
   height="192.4478mm"
   viewBox="0 0 213.68624 192.4478"
   version="1.1"
   id="svg1"
   xml:space="preserve"
   inkscape:version="1.4.2 (f4327f4, 2025-05-13)"
   sodipodi:docname="logo.svg"
   xmlns:inkscape="http://www.inkscape.org/namespaces/inkscape"
   xmlns:sodipodi="http://sodipodi.sourceforge.net/DTD/sodipodi-0.dtd"
   xmlns="http://www.w3.org/2000/svg"
   xmlns:svg="http://www.w3.org/2000/svg"><sodipodi:namedview
     id="namedview1"
     pagecolor="#ffffff"
     bordercolor="#000000"
     borderopacity="0.25"
     inkscape:showpageshadow="2"
     inkscape:pageopacity="0.0"
     inkscape:pagecheckerboard="0"
     inkscape:deskcolor="#d1d1d1"
     inkscape:document-units="mm"
     inkscape:zoom="1.0267829"
     inkscape:cx="344.2792"
     inkscape:cy="290.71383"
     inkscape:window-width="1920"
     inkscape:window-height="1017"
     inkscape:window-x="1912"
     inkscape:window-y="-8"
     inkscape:window-maximized="1"
     inkscape:current-layer="layer1" /><defs
     id="defs1" /><g
     inkscape:label="Warstwa 1"
     inkscape:groupmode="layer"
     id="layer1"
     transform="translate(-30.6765,-36.870668)"><path
       style="fill:#000000;fill-opacity:1"
       d="m 143.80103,198.73629 c -2.95694,-0.38753 -6.57062,-1.07417 -7.07565,-1.34446 -0.68908,-0.36878 -0.56835,-1.32983 0.59357,-4.72515 1.09312,-3.19424 1.54725,-3.81072 2.64048,-3.58442 3.37693,0.699 13.14344,0.91669 17.50097,0.39008 3.76818,-0.45539 8.06334,-1.64004 11.94372,-3.29421 7.08947,-3.02217 10.63292,-5.35614 18.15164,-11.95596 2.2403,-1.9665 3.47686,-2.43725 5.11384,-1.94679 2.16645,0.64908 3.67504,3.02532 3.27488,5.15837 -0.26573,1.41649 -2.77434,4.16941 -6.60246,7.24545 -9.60128,7.71502 -18.36675,11.84182 -29.10702,13.70363 -2.84701,0.49353 -13.60051,0.72481 -16.43397,0.35346 z M 113.0078,185.3215 c -4.63791,-2.49484 -13.292513,-11.55953 -17.998698,-18.85156 -1.930634,-2.99143 -4.630621,-8.41483 -5.927412,-11.90625 -3.961108,-10.6647 -4.699001,-24.19564 -1.920985,-35.22566 3.697166,-14.67948 12.391855,-27.403898 23.825455,-34.867831 6.86263,-4.479975 17.39859,-8.222478 24.45242,-8.685803 1.82627,-0.119957 2.37782,-0.06135 3.10421,0.329831 2.04276,1.1001 2.63805,5.052841 1.07048,7.108028 -0.83553,1.095442 -1.64068,1.365829 -6.67787,2.242583 -11.05938,1.924954 -21.31696,8.345958 -28.14926,17.620782 -5.868644,7.96665 -9.120412,16.8895 -9.79132,26.86736 -0.518989,7.71851 0.553954,15.44338 3.087554,22.22946 3.531696,9.45943 9.419496,17.15332 18.251166,23.84979 2.88935,2.19079 3.78729,3.46087 3.78729,5.35691 0,1.42052 -0.41736,2.36417 -1.49774,3.38636 -1.56254,1.47841 -3.52687,1.66941 -5.61529,0.546 z"
       id="path5"
       sodipodi:nodetypes="ssssssssssssssssssssssssssss"
       inkscape:label="smaler" /><path
       style="fill:#000000;fill-opacity:1"
       d="m 123.39294,198.46166 c -2.08901,-1.69216 -1.53682,-4.59833 3.37166,-17.7451 3.56071,-9.53693 3.74843,-10.57643 2.2804,-12.62772 -1.23797,-1.72983 -5.52041,-9.21724 -6.81463,-11.91469 -1.32457,-2.76072 -2.00753,-5.4183 -2.93629,-8.83733 -1.1837,-4.35753 -1.57729,-11.55351 -0.007,-17.46039 1.8874,-7.10079 4.50484,-13.7375 8.45206,-19.13949 3.2711,-4.47668 9.02694,-10.23187 14.60689,-14.605235 7.61843,-5.971064 20.33629,-13.074184 30.95624,-17.289549 7.04274,-2.795464 16.03124,-5.85325 17.20589,-5.85325 2.22083,0 3.64489,2.296984 5.1646,8.330419 0.94451,3.749788 2.48944,12.610313 3.18387,18.260204 0.57315,4.663131 0.8032,17.618191 0.39112,22.025721 -0.64335,6.88115 -2.25213,13.68449 -4.64685,19.65099 -6.89819,17.18701 -22.39403,30.03228 -40.67497,33.7175 -4.4816,0.90343 -8.79586,1.43504 -13.31124,1.64021 -2.24944,0.10221 -3.92234,0.29338 -4.05608,0.46352 -0.12519,0.15925 -0.46969,0.9444 -0.76555,1.74476 -1.47242,3.98318 -6.24318,15.94481 -6.93969,17.39976 -0.52625,1.09928 -1.08298,1.8337 -1.65395,2.18183 -1.08646,0.66242 -3.02357,0.69186 -3.80628,0.0578 z m 22.52476,-31.44771 c 6.78578,-0.93047 12.65461,-2.68559 18.02915,-5.39176 14.98893,-7.54717 24.13371,-21.64775 26.04598,-40.16102 0.40263,-3.89795 0.16913,-15.71121 -0.40112,-20.29414 -0.94232,-7.573173 -2.69317,-17.580265 -3.15699,-18.044092 -0.17282,-0.172813 -6.74089,2.436255 -9.29619,3.69277 -0.87312,0.429341 -3.61156,1.647986 -6.08541,2.708102 -7.91812,3.393134 -15.97677,8.125942 -22.75732,13.36528 -3.25516,2.51527 -11.19287,10.40153 -13.18002,13.0946 -3.27889,4.4437 -5.70439,9.92908 -6.96105,15.74271 -0.61203,2.83141 -0.70206,11.97043 -0.14075,14.2875 0.93694,3.86765 3.67325,10.69743 5.22718,13.04691 0.53328,0.8063 0.80632,0.99187 1.36256,0.92604 0.61408,-0.0727 1.01861,-0.70278 3.4501,-5.37399 1.51495,-2.91042 4.08976,-7.73245 5.7218,-10.71563 1.63204,-2.98317 3.10908,-5.75698 3.28232,-6.16401 0.49476,-1.16249 0.38544,-2.71698 -0.74485,-10.59201 -1.36131,-9.4846 -1.3558,-10.50044 0.0652,-12.01741 0.88927,-0.94931 2.60251,-0.82939 3.77994,0.26458 1.49649,1.3904 2.1466,3.89057 2.65235,10.20032 0.14236,1.77605 0.25393,2.18135 0.58267,2.11666 0.22363,-0.044 1.61504,-2.04453 3.09204,-4.44563 3.27968,-5.33163 10.16277,-15.67118 12.60858,-18.94019 2.98818,-3.99393 4.56888,-5.07048 6.35726,-4.329706 0.9927,0.411186 2.15834,2.595386 2.18143,4.087606 0.0223,1.44335 -0.51225,2.4085 -3.29738,5.95313 -1.31491,1.67349 -4.07265,5.54302 -6.1283,8.59896 -3.85787,5.73509 -7.3232,10.64309 -10.05124,14.23569 -1.40291,1.8475 -1.76642,2.82993 -1.04711,2.82993 0.74816,0 11.1867,-5.00555 14.34143,-6.87709 2.67436,-1.58656 4.175,-1.90698 5.56491,-1.18822 1.50857,0.78011 2.07084,3.13514 1.05642,4.42476 -0.68535,0.87128 -3.36027,2.24267 -10.45779,5.36153 -9.10287,4.00007 -14.68864,6.8947 -16.68191,8.64482 -0.50314,0.44176 -1.58764,2.01088 -2.41,3.48693 -0.82236,1.47605 -2.73261,4.7363 -4.245,7.245 -2.83438,4.70157 -5.26911,9.84503 -4.99654,10.55536 0.17355,0.45226 1.32387,0.39433 6.63762,-0.33429 z"
       id="path4"
       sodipodi:nodetypes="csssscssssssssssssssccsssssssssssssssssssssssssssssssssssssss"
       inkscape:label="leaf" /><path
       style="display:inline;fill:#000000;fill-opacity:1"
       d="m 50.269118,229.16159 c -2.968874,-0.97052 -5.438078,-3.3994 -6.488388,-6.38244 -0.843424,-2.39544 -0.869066,-4.32552 -0.23727,-17.85937 0.570557,-12.22203 1.091536,-23.56669 2.095949,-45.64062 0.215199,-4.72943 0.573167,-13.18287 0.795483,-18.78542 0.222316,-5.60255 0.521506,-12.25349 0.664867,-14.77987 0.14336,-2.52638 0.260655,-6.13184 0.260655,-8.01214 0,-4.95605 -0.220605,-5.35864 -4.879177,-8.90415 -6.006254,-4.5712 -9.19195,-8.878583 -11.057779,-14.951231 C 30.842336,91.954992 30.838037,91.796673 30.75753,69.32083 L 30.6765,46.698956 31.279395,45.527908 c 0.820509,-1.593736 1.984396,-2.199207 3.977703,-2.069258 1.796456,0.117116 3.413912,1.105101 4.221898,2.578848 0.490638,0.894912 0.504899,1.637561 0.424249,22.092707 l -0.08346,21.166665 0.576152,1.076382 c 0.766521,1.432034 2.491159,2.955661 3.575956,3.15917 0.482014,0.09043 1.471384,0.12692 2.198599,0.0811 l 1.322209,-0.08332 0.132291,-23.700931 0.132292,-23.700931 0.741281,-0.971741 c 1.009068,-1.322782 2.138218,-1.868262 3.890098,-1.879263 1.72335,-0.01082 3.027839,0.674292 3.835287,2.014281 0.515866,0.856097 0.532492,1.47008 0.661459,24.426087 L 57.0177,93.265619 h 2.248959 c 2.601763,0 3.435213,-0.430405 4.52855,-2.338606 l 0.630824,-1.100977 0.132292,-21.960416 0.132292,-21.960415 0.600046,-0.841243 c 1.932353,-2.709084 5.845936,-2.654273 7.738873,0.108386 l 0.656913,0.958737 V 69.301478 92.47187 l -0.607698,2.09862 c -0.334234,1.154241 -1.144701,3.138356 -1.801038,4.409146 -2.008086,3.888024 -3.728802,5.646494 -11.107859,11.351604 -1.035205,0.80037 -1.782505,1.65583 -2.279915,2.6099 -0.678019,1.3005 -0.739947,1.66042 -0.739947,4.3005 0,1.58467 0.120093,4.93459 0.266873,7.44426 0.14678,2.50968 0.562184,10.09946 0.92312,16.86618 0.360937,6.76671 0.777664,14.56531 0.92606,17.3302 0.148397,2.7649 0.507056,9.96818 0.79702,16.00729 0.550161,11.45827 1.137581,22.04578 1.58541,28.575 0.728324,10.61877 0.821798,14.6038 0.399156,17.01697 -0.670007,3.82555 -2.381037,6.44607 -5.218208,7.99191 -1.180629,0.64327 -1.750566,0.77351 -3.648181,0.83365 -1.236927,0.0392 -2.547385,-0.0263 -2.912129,-0.14551 z"
       id="path2"
       sodipodi:nodetypes="sssssssssscsssscssscccsssscsscccsscccsssssssssssssss"
       inkscape:label="fork" /><path
       id="path1"
       style="fill:#000000;stroke-width:1.214;paint-order:markers stroke fill"
       d="M 148.13863,36.870668 A 96.2239,96.2239 0 0 0 82.454783,62.77658 L 81.154087,85.154543 A 82.372154,82.372154 0 0 1 148.13863,50.722536 82.372154,82.372154 0 0 1 230.51086,133.09477 82.372154,82.372154 0 0 1 148.13863,215.46649 82.372154,82.372154 0 0 1 76.050523,172.9497 l -1.301213,22.37848 a 96.2239,96.2239 0 0 0 0,5.2e-4 96.2239,96.2239 0 0 0 73.38932,33.98965 96.2239,96.2239 0 0 0 96.2241,-96.22358 96.2239,96.2239 0 0 0 -96.2241,-96.224102 z" /></g></svg>
